Mutua-Regular.ufo
<glyph name="exclam" format="2">
  <advance width="500"/>
  <unicode hex="0021"/>
  <outline>
    <contour>
      <point x="189" y="0" type="line"/>
      <point x="318" y="0" type="line"/>
      <point x="318" y="129" type="line"/>
      <point x="189" y="129" type="line"/>
    </contour>
    <contour>
      <point x="177" y="696" type="line"/>
      <point x="191" y="216" type="line"/>
      <point x="317" y="216" type="line"/>
      <point x="331" y="696" type="line"/>
    </contour>
  </outline>
  <guideline angle="0" x="0" y="696"/>
</glyph>
<glyph name="numbersign" format="2">
	<advance width="764"/>
	<unicode hex="0023"/>
	<outline>
		<contour>
			<point x="194" y="699" type="line"/>
			<point x="194" y="0" type="line"/>
			<point x="320" y="0" type="line"/>
			<point x="320" y="699" type="line"/>
		</contour>
		<contour>
			<point x="455" y="699" type="line"/>
			<point x="455" y="0" type="line"/>
			<point x="581" y="0" type="line"/>
			<point x="581" y="699" type="line"/>
		</contour>
		<contour>
			<point x="713" y="547" type="line"/>
			<point x="63" y="546" type="line"/>
			<point x="63" y="420" type="line"/>
			<point x="713" y="421" type="line"/>
		</contour>
		<contour>
			<point x="714" y="286" type="line"/>
			<point x="63" y="285" type="line"/>
			<point x="63" y="159" type="line"/>
			<point x="713" y="160" type="line"/>
		</contour>
	</outline>
</glyph>
<glyph name="ampersand" format="2">
  <advance width="738"/>
  <unicode hex="0026"/>
  <outline>
    <contour>
      <point x="230" y="522" type="curve" smooth="yes"/>
      <point x="230" y="561"/>
      <point x="262" y="574"/>
      <point x="298" y="574" type="curve" smooth="yes"/>
      <point x="559" y="574" type="line"/>
      <point x="559" y="697" type="line"/>
      <point x="269" y="697" type="line" smooth="yes"/>
      <point x="172" y="697"/>
      <point x="106" y="641"/>
      <point x="107" y="556" type="curve" smooth="yes"/>
      <point x="107" y="550"/>
      <point x="107" y="533"/>
      <point x="107" y="487" type="curve" smooth="yes"/>
      <point x="107" y="437"/>
      <point x="128" y="401"/>
      <point x="175" y="390" type="curve"/>
      <point x="175" y="328" type="line"/>
      <point x="718" y="-9" type="line"/>
      <point x="718" y="142" type="line"/>
      <point x="245" y="426" type="line"/>
      <point x="230" y="437"/>
      <point x="230" y="451"/>
      <point x="230" y="470" type="curve" smooth="yes"/>
      <point x="230" y="489"/>
      <point x="230" y="514"/>
    </contour>
    <contour>
      <point x="267" y="363" type="line"/>
      <point x="182" y="363" type="line"/>
      <point x="120" y="363"/>
      <point x="50" y="334"/>
      <point x="50" y="246" type="curve" smooth="yes"/>
      <point x="50" y="154" type="line" smooth="yes"/>
      <point x="50" y="50"/>
      <point x="108" y="0"/>
      <point x="227" y="0" type="curve" smooth="yes"/>
      <point x="431" y="0" type="line" smooth="yes"/>
      <point x="573" y="0"/>
      <point x="620" y="81"/>
      <point x="616" y="198" type="curve"/>
      <point x="616" y="347" type="line"/>
      <point x="500" y="347" type="line"/>
      <point x="500" y="206" type="line"/>
      <point x="501" y="141"/>
      <point x="474" y="129"/>
      <point x="427" y="125" type="curve"/>
      <point x="237" y="125" type="line"/>
      <point x="195" y="125"/>
      <point x="174" y="144"/>
      <point x="174" y="187" type="curve"/>
      <point x="174" y="267" type="line"/>
      <point x="173" y="314"/>
      <point x="204" y="324"/>
      <point x="226" y="327" type="curve"/>
      <point x="267" y="327" type="line"/>
    </contour>
  </outline>
</glyph>
<glyph name="parenright" format="2">
  <advance width="350"/>
  <unicode hex="0029"/>
  <outline>
    <contour>
      <point x="50" y="-16" type="line"/>
      <point x="50" y="-147" type="line"/>
      <point x="91" y="-147" type="line" smooth="yes"/>
      <point x="249" y="-147"/>
      <point x="300" y="-70"/>
      <point x="300" y="84" type="curve"/>
      <point x="300" y="538" type="line" smooth="yes"/>
      <point x="300" y="685"/>
      <point x="228" y="768"/>
      <point x="91" y="768" type="curve" smooth="yes"/>
      <point x="50" y="768" type="line"/>
      <point x="50" y="637" type="line"/>
      <point x="93" y="637" type="line" smooth="yes"/>
      <point x="139" y="637"/>
      <point x="169" y="598"/>
      <point x="169" y="553" type="curve" smooth="yes"/>
      <point x="169" y="48" type="line" smooth="yes"/>
      <point x="169" y="9"/>
      <point x="139" y="-16"/>
      <point x="93" y="-16" type="curve" smooth="yes"/>
    </contour>
  </outline>
  <guideline angle="90" x="226" y="0"/>
</glyph>
<glyph name="hyphen" format="2">
  <advance width="500"/>
  <unicode hex="002D"/>
  <outline>
    <contour>
      <point x="100" y="191" type="line"/>
      <point x="412" y="191" type="line"/>
      <point x="412" y="320" type="line"/>
      <point x="100" y="320" type="line"/>
    </contour>
    <contour>
      <point x="100" y="191" type="line"/>
      <point x="229" y="191" type="line"/>
      <point x="229" y="320" type="line"/>
      <point x="100" y="320" type="line"/>
    </contour>
  </outline>
  <guideline angle="90" x="412" y="0"/>
</glyph>
<glyph name="period" format="2">
	<advance width="229"/>
	<unicode hex="002E"/>
	<outline>
		<contour>
			<point x="50" y="0" type="line"/>
			<point x="179" y="0" type="line"/>
			<point x="179" y="129" type="line"/>
			<point x="50" y="129" type="line"/>
		</contour>
	</outline>
</glyph>
<glyph name="slash" format="2">
	<advance width="445"/>
	<unicode hex="002F"/>
	<outline>
		<contour>
			<point x="282" y="756" type="line"/>
			<point x="50" y="-148" type="line"/>
			<point x="176" y="-148" type="line"/>
			<point x="408" y="756" type="line"/>
		</contour>
	</outline>
</glyph>
<glyph name="one" format="2">
  <advance width="720"/>
  <unicode hex="0031"/>
  <outline>
    <contour>
      <point x="484" y="755" type="line"/>
      <point x="354" y="755" type="line"/>
      <point x="354" y="-1" type="line"/>
      <point x="484" y="-1" type="line"/>
    </contour>
    <contour>
      <point x="354" y="595" type="curve"/>
      <point x="354" y="755" type="line"/>
      <point x="331" y="714"/>
      <point x="219" y="644"/>
      <point x="115" y="644" type="curve"/>
      <point x="115" y="521" type="line"/>
      <point x="214" y="521"/>
      <point x="325" y="557"/>
    </contour>
    <contour>
      <point x="122" y="126" type="line"/>
      <point x="122" y="-2" type="line"/>
      <point x="688" y="-1" type="line"/>
      <point x="688" y="127" type="line"/>
    </contour>
  </outline>
</glyph>
<glyph name="two" format="2">
	<advance width="720"/>
	<unicode hex="0032"/>
	<outline>
		<contour>
			<point x="80" y="126" type="curve"/>
			<point x="80" y="1" type="line"/>
			<point x="212" y="1" type="line"/>
			<point x="211" y="97" type="line"/>
			<point x="212" y="209"/>
			<point x="651" y="335"/>
			<point x="651" y="528" type="curve" smooth="yes"/>
			<point x="651" y="603" type="line" smooth="yes"/>
			<point x="651" y="702"/>
			<point x="588" y="759"/>
			<point x="465" y="759" type="curve" smooth="yes"/>
			<point x="271" y="759" type="line" smooth="yes"/>
			<point x="147" y="759"/>
			<point x="85" y="702"/>
			<point x="85" y="603" type="curve" smooth="yes"/>
			<point x="85" y="508" type="line"/>
			<point x="210" y="508" type="line"/>
			<point x="210" y="571" type="line" smooth="yes"/>
			<point x="210" y="617"/>
			<point x="243" y="634"/>
			<point x="289" y="634" type="curve"/>
			<point x="443" y="634" type="line"/>
			<point x="507" y="634"/>
			<point x="527" y="613"/>
			<point x="527" y="560" type="curve" smooth="yes"/>
			<point x="527" y="410"/>
			<point x="80" y="284"/>
		</contour>
		<contour>
			<point x="177" y="130" type="line"/>
			<point x="147" y="0" type="line"/>
			<point x="647" y="0" type="line"/>
			<point x="647" y="130" type="line"/>
		</contour>
	</outline>
</glyph>
<glyph name="four" format="2">
  <advance width="720"/>
  <unicode hex="0034"/>
  <outline>
    <contour>
      <point x="549" y="762" type="line"/>
      <point x="369" y="762" type="line"/>
      <point x="33" y="287" type="line"/>
      <point x="33" y="169" type="line"/>
      <point x="419" y="169" type="line"/>
      <point x="419" y="6" type="line"/>
      <point x="549" y="6" type="line"/>
      <point x="549" y="169" type="line"/>
      <point x="648" y="169" type="line"/>
      <point x="648" y="297" type="line"/>
      <point x="549" y="295" type="line"/>
    </contour>
    <contour>
      <point x="148" y="253" type="line"/>
      <point x="439" y="671" type="line"/>
      <point x="419" y="679" type="line"/>
      <point x="419" y="293" type="line"/>
      <point x="143" y="293" type="line"/>
    </contour>
  </outline>
</glyph>
<glyph name="colon" format="2">
	<advance width="229"/>
	<unicode hex="003A"/>
	<outline>
		<contour>
			<point x="50" y="0" type="line"/>
			<point x="179" y="0" type="line"/>
			<point x="179" y="129" type="line"/>
			<point x="50" y="129" type="line"/>
		</contour>
		<contour>
			<point x="50" y="556" type="line"/>
			<point x="50" y="427" type="line"/>
			<point x="179" y="427" type="line"/>
			<point x="179" y="556" type="line"/>
		</contour>
	</outline>
</glyph>
<glyph name="at" format="2">
	<advance width="968"/>
	<unicode hex="0040"/>
	<outline>
		<contour>
			<point x="372" y="328" type="curve"/>
			<point x="372" y="388"/>
			<point x="391" y="413"/>
			<point x="447" y="413" type="curve"/>
			<point x="575" y="413" type="line"/>
			<point x="604" y="530" type="line"/>
			<point x="604" y="530"/>
			<point x="553" y="530"/>
			<point x="424" y="530" type="curve" smooth="yes"/>
			<point x="294" y="530"/>
			<point x="256" y="455"/>
			<point x="256" y="348" type="curve" smooth="yes"/>
			<point x="256" y="259" type="line" smooth="yes"/>
			<point x="256" y="134"/>
			<point x="310" y="78"/>
			<point x="414" y="80" type="curve"/>
			<point x="444" y="80" type="line"/>
			<point x="540" y="80"/>
			<point x="548" y="132"/>
			<point x="567" y="207" type="curve"/>
			<point x="580" y="207" type="line"/>
			<point x="568" y="306" type="line"/>
			<point x="568" y="216"/>
			<point x="557" y="204"/>
			<point x="482" y="204" type="curve" smooth="yes"/>
			<point x="447" y="204" type="line" smooth="yes"/>
			<point x="391" y="204"/>
			<point x="372" y="223"/>
			<point x="372" y="284" type="curve" smooth="yes"/>
			<point x="372" y="305"/>
			<point x="372" y="327"/>
		</contour>
		<contour>
			<point x="65" y="122" type="line" smooth="yes"/>
			<point x="65" y="-37"/>
			<point x="128" y="-108"/>
			<point x="258" y="-108" type="curve" smooth="yes"/>
			<point x="524" y="-108" type="line"/>
			<point x="524" y="19" type="line"/>
			<point x="303" y="19" type="line" smooth="yes"/>
			<point x="230" y="19"/>
			<point x="193" y="41"/>
			<point x="193" y="141" type="curve" smooth="yes"/>
			<point x="193" y="476" type="line" smooth="yes"/>
			<point x="193" y="576"/>
			<point x="231" y="598"/>
			<point x="304" y="598" type="curve" smooth="yes"/>
			<point x="665" y="598" type="line" smooth="yes"/>
			<point x="738" y="598"/>
			<point x="775" y="576"/>
			<point x="775" y="476" type="curve" smooth="yes"/>
			<point x="775" y="291" type="line" smooth="yes"/>
			<point x="775" y="216"/>
			<point x="753" y="208"/>
			<point x="708" y="208" type="curve" smooth="yes"/>
			<point x="686" y="208" type="line"/>
			<point x="686" y="531" type="line"/>
			<point x="568" y="530" type="line"/>
			<point x="568" y="284" type="line"/>
			<point x="580" y="206" type="line" smooth="yes"/>
			<point x="592" y="131"/>
			<point x="625" y="81"/>
			<point x="689" y="81" type="curve" smooth="yes"/>
			<point x="753" y="81" type="line" smooth="yes"/>
			<point x="849" y="81"/>
			<point x="903" y="174"/>
			<point x="903" y="309" type="curve" smooth="yes"/>
			<point x="903" y="495" type="line" smooth="yes"/>
			<point x="903" y="614"/>
			<point x="840" y="725"/>
			<point x="710" y="725" type="curve" smooth="yes"/>
			<point x="258" y="725" type="line" smooth="yes"/>
			<point x="153" y="725"/>
			<point x="65" y="632"/>
			<point x="65" y="497" type="curve" smooth="yes"/>
		</contour>
	</outline>
</glyph>
<glyph name="X" format="2">
  <advance width="694"/>
  <unicode hex="0058"/>
  <outline>
    <contour>
      <point x="14" y="0" type="line"/>
      <point x="161" y="0" type="line"/>
      <point x="330" y="306" type="line"/>
      <point x="364" y="306" type="line"/>
      <point x="523" y="0" type="line"/>
      <point x="680" y="0" type="line"/>
      <point x="450" y="426" type="line"/>
      <point x="455" y="329" type="line"/>
      <point x="678" y="756" type="line"/>
      <point x="532" y="756" type="line"/>
      <point x="363" y="434" type="line"/>
      <point x="332" y="434" type="line"/>
      <point x="174" y="756" type="line"/>
      <point x="18" y="756" type="line"/>
      <point x="230" y="329" type="line"/>
      <point x="244" y="426" type="line"/>
    </contour>
  </outline>
  <guideline angle="90" x="-1212" y="0"/>
  <guideline angle="90" x="-1273" y="0"/>
</glyph>
<glyph name="Y" format="2">
	<advance width="629"/>
	<unicode hex="0059"/>
	<guideline y="273"/>
	<outline>
		<contour>
			<point x="-18" y="756" type="line"/>
			<point x="261" y="252" type="line"/>
			<point x="250" y="337" type="line"/>
			<point x="250" y="0" type="line"/>
			<point x="380" y="0" type="line"/>
			<point x="380" y="337" type="line"/>
			<point x="359" y="231" type="line"/>
			<point x="638" y="756" type="line"/>
			<point x="496" y="756" type="line"/>
			<point x="303" y="354" type="line"/>
			<point x="377" y="405" type="line"/>
			<point x="260" y="405" type="line"/>
			<point x="334" y="354" type="line"/>
			<point x="134" y="756" type="line"/>
		</contour>
	</outline>
</glyph>
<glyph name="backslash" format="2">
	<advance width="445"/>
	<unicode hex="005C"/>
	<outline>
		<contour>
			<point x="163" y="756" type="line"/>
			<point x="37" y="756" type="line"/>
			<point x="269" y="-148" type="line"/>
			<point x="395" y="-148" type="line"/>
		</contour>
	</outline>
</glyph>
<glyph name="bracketright" format="2">
  <advance width="406"/>
  <unicode hex="005D"/>
  <outline>
    <contour>
      <point x="180" y="755" type="line"/>
      <point x="180" y="-147" type="line"/>
      <point x="306" y="-147" type="line"/>
      <point x="306" y="755" type="line"/>
    </contour>
    <contour>
      <point x="306" y="755" type="line"/>
      <point x="100" y="755" type="line"/>
      <point x="100" y="629" type="line"/>
      <point x="306" y="629" type="line"/>
    </contour>
    <contour>
      <point x="306" y="-21" type="line"/>
      <point x="100" y="-21" type="line"/>
      <point x="100" y="-147" type="line"/>
      <point x="306" y="-147" type="line"/>
    </contour>
  </outline>
  <guideline angle="90" x="306" y="0"/>
</glyph>
<glyph name="underscore" format="2">
	<advance width="547"/>
	<unicode hex="005F"/>
	<outline>
		<contour>
			<point x="50" y="-166" type="line"/>
			<point x="497" y="-166" type="line"/>
			<point x="497" y="-37" type="line"/>
			<point x="50" y="-37" type="line"/>
		</contour>
	</outline>
</glyph>
<glyph name="braceleft" format="2">
	<advance width="421"/>
	<unicode hex="007B"/>
	<guideline x="406"/>
	<guideline x="681" y="277" angle="180.295"/>
	<outline>
		<contour>
			<point x="371" y="643" type="line"/>
			<point x="371" y="768" type="line"/>
			<point x="280" y="768" type="line" smooth="yes"/>
			<point x="172" y="768"/>
			<point x="124" y="723"/>
			<point x="123" y="576" type="curve" smooth="yes"/>
			<point x="122" y="381" type="line"/>
			<point x="50" y="366" type="line"/>
			<point x="50" y="252" type="line"/>
			<point x="122" y="236" type="line"/>
			<point x="122" y="47" type="line" smooth="yes"/>
			<point x="122" y="-99"/>
			<point x="171" y="-145"/>
			<point x="279" y="-145" type="curve" smooth="yes"/>
			<point x="344" y="-145" type="line"/>
			<point x="344" y="-20" type="line"/>
			<point x="308" y="-20" type="line" smooth="yes"/>
			<point x="263" y="-20"/>
			<point x="245" y="6"/>
			<point x="245" y="47" type="curve" smooth="yes"/>
			<point x="246" y="215" type="line" smooth="yes"/>
			<point x="246" y="238"/>
			<point x="226" y="291"/>
			<point x="180" y="291" type="curve" smooth="yes"/>
			<point x="152" y="291" type="line"/>
			<point x="152" y="327" type="line"/>
			<point x="180" y="327" type="line" smooth="yes"/>
			<point x="226" y="327"/>
			<point x="246" y="363"/>
			<point x="246" y="402" type="curve" smooth="yes"/>
			<point x="247" y="553" type="line" smooth="yes"/>
			<point x="247" y="612"/>
			<point x="272" y="643"/>
			<point x="328" y="643" type="curve" smooth="yes"/>
		</contour>
	</outline>
</glyph>
<glyph name="braceright" format="2">
	<advance width="421"/>
	<unicode hex="007D"/>
	<guideline x="393"/>
	<guideline y="275"/>
	<outline>
		<contour>
			<point x="50" y="643" type="line"/>
			<point x="93" y="643" type="line" smooth="yes"/>
			<point x="149" y="643"/>
			<point x="174" y="612"/>
			<point x="174" y="553" type="curve" smooth="yes"/>
			<point x="175" y="402" type="line" smooth="yes"/>
			<point x="175" y="363"/>
			<point x="195" y="327"/>
			<point x="241" y="327" type="curve" smooth="yes"/>
			<point x="269" y="327" type="line"/>
			<point x="269" y="291" type="line"/>
			<point x="241" y="291" type="line" smooth="yes"/>
			<point x="195" y="291"/>
			<point x="175" y="238"/>
			<point x="175" y="215" type="curve" smooth="yes"/>
			<point x="176" y="47" type="line" smooth="yes"/>
			<point x="176" y="6"/>
			<point x="158" y="-20"/>
			<point x="113" y="-20" type="curve" smooth="yes"/>
			<point x="77" y="-20" type="line"/>
			<point x="77" y="-145" type="line"/>
			<point x="142" y="-145" type="line" smooth="yes"/>
			<point x="250" y="-145"/>
			<point x="299" y="-99"/>
			<point x="299" y="47" type="curve" smooth="yes"/>
			<point x="299" y="236" type="line"/>
			<point x="371" y="252" type="line"/>
			<point x="371" y="366" type="line"/>
			<point x="299" y="381" type="line"/>
			<point x="298" y="576" type="line" smooth="yes"/>
			<point x="297" y="723"/>
			<point x="249" y="768"/>
			<point x="141" y="768" type="curve" smooth="yes"/>
			<point x="50" y="768" type="line"/>
		</contour>
	</outline>
</glyph>
<glyph name="exclamdown" format="2">
	<advance width="500"/>
	<unicode hex="00A1"/>
	<guideline y="-164"/>
	<guideline y="429"/>
	<outline>
		<contour>
			<point x="189" y="530" type="line"/>
			<point x="189" y="401" type="line"/>
			<point x="318" y="401" type="line"/>
			<point x="318" y="530" type="line"/>
		</contour>
		<contour>
			<point x="177" y="-166" type="line"/>
			<point x="331" y="-166" type="line"/>
			<point x="317" y="314" type="line"/>
			<point x="191" y="314" type="line"/>
		</contour>
	</outline>
</glyph>
<glyph name="questiondown" format="2">
	<advance width="528"/>
	<unicode hex="00BF"/>
	<guideline y="-175"/>
	<outline>
		<contour>
			<point x="370" y="72" type="line" smooth="yes"/>
			<point x="440" y="72"/>
			<point x="476" y="101"/>
			<point x="476" y="168" type="curve" smooth="yes"/>
			<point x="476" y="200"/>
			<point x="476" y="302"/>
			<point x="476" y="325" type="curve"/>
			<point x="354" y="325" type="line"/>
			<point x="354" y="285"/>
			<point x="354" y="258"/>
			<point x="354" y="233" type="curve" smooth="yes"/>
			<point x="354" y="208"/>
			<point x="342" y="197"/>
			<point x="314" y="197" type="curve" smooth="yes"/>
			<point x="159" y="196" type="line" smooth="yes"/>
			<point x="83" y="196"/>
			<point x="50" y="156"/>
			<point x="50" y="86" type="curve" smooth="yes"/>
			<point x="50" y="-66" type="line" smooth="yes"/>
			<point x="50" y="-142"/>
			<point x="83" y="-175"/>
			<point x="159" y="-175" type="curve" smooth="yes"/>
			<point x="478" y="-175" type="line"/>
			<point x="478" y="-50" type="line"/>
			<point x="214" y="-50" type="line" smooth="yes"/>
			<point x="187" y="-50"/>
			<point x="175" y="-32"/>
			<point x="175" y="-12" type="curve" smooth="yes"/>
			<point x="175" y="8"/>
			<point x="175" y="21"/>
			<point x="175" y="34" type="curve" smooth="yes"/>
			<point x="175" y="59"/>
			<point x="187" y="72"/>
			<point x="214" y="72" type="curve" smooth="yes"/>
		</contour>
		<contour>
			<point x="478" y="529" type="line"/>
			<point x="349" y="529" type="line"/>
			<point x="349" y="400" type="line"/>
			<point x="478" y="400" type="line"/>
		</contour>
	</outline>
</glyph>
<glyph name="tildecomb" format="2">
  <advance width="587"/>
  <unicode hex="0303"/>
  <anchor x="316" y="826" name="top"/>
  <anchor x="316" y="556" name="_top"/>
  <outline>
    <contour>
      <point x="104" y="634" type="line"/>
      <point x="191" y="634" type="line"/>
      <point x="191" y="675" type="line" smooth="yes"/>
      <point x="191" y="698"/>
      <point x="202" y="712"/>
      <point x="230" y="712" type="curve" smooth="yes"/>
      <point x="274" y="712"/>
      <point x="346" y="640"/>
      <point x="411" y="640" type="curve" smooth="yes"/>
      <point x="497" y="640"/>
      <point x="530" y="672"/>
      <point x="530" y="754" type="curve" smooth="yes"/>
      <point x="530" y="817" type="line"/>
      <point x="443" y="817" type="line"/>
      <point x="443" y="794" type="line" smooth="yes"/>
      <point x="443" y="765"/>
      <point x="434" y="753"/>
      <point x="409" y="753" type="curve" smooth="yes"/>
      <point x="363" y="753"/>
      <point x="292" y="825"/>
      <point x="227" y="825" type="curve" smooth="yes"/>
      <point x="138" y="825"/>
      <point x="104" y="788"/>
      <point x="104" y="692" type="curve" smooth="yes"/>
    </contour>
  </outline>
</glyph>
<glyph name="emdash" format="2">
	<advance width="1101"/>
	<unicode hex="2014"/>
	<outline>
		<contour>
			<point x="50" y="191" type="line"/>
			<point x="1051" y="191" type="line"/>
			<point x="1051" y="320" type="line"/>
			<point x="50" y="320" type="line"/>
		</contour>
	</outline>
</glyph>
<glyph name="guilsinglleft" format="2">
	<advance width="303"/>
	<unicode hex="2039"/>
	<guideline x="8"/>
	<guideline x="275"/>
	<outline>
		<contour>
			<point x="50" y="183" type="line"/>
			<point x="253" y="63" type="line"/>
			<point x="253" y="203" type="line"/>
			<point x="143" y="259" type="line"/>
			<point x="143" y="279" type="line"/>
			<point x="253" y="335" type="line"/>
			<point x="253" y="475" type="line"/>
			<point x="50" y="355" type="line"/>
		</contour>
	</outline>
</glyph>
<glyph name="arrowboth" format="2">
  <advance width="816"/>
  <unicode hex="2194"/>
  <outline>
    <contour>
      <point x="267.261" y="65.2804" type="line"/>
      <point x="50.7075" y="317.816" type="line"/>
      <point x="50.7075" y="421.543" type="line"/>
      <point x="267.261" y="670.41" type="line"/>
      <point x="334.284" y="602.589" type="line"/>
      <point x="112.944" y="369.68" type="line"/>
      <point x="183.159" y="453.459" type="line"/>
      <point x="183.159" y="393.617" type="line"/>
      <point x="84.2193" y="422.341" type="line"/>
      <point x="653.92" y="422.341" type="line"/>
      <point x="653.92" y="317.816" type="line"/>
      <point x="84.2193" y="317.816" type="line"/>
      <point x="183.159" y="340.955" type="line"/>
      <point x="183.159" y="290.688" type="line"/>
      <point x="112.146" y="369.68" type="line"/>
      <point x="334.284" y="133.102" type="line"/>
    </contour>
    <contour>
      <point x="569.825" y="65.2599" type="line"/>
      <point x="786.378" y="317.796" type="line"/>
      <point x="786.378" y="421.523" type="line"/>
      <point x="569.825" y="670.39" type="line"/>
      <point x="502.801" y="602.568" type="line"/>
      <point x="724.142" y="369.659" type="line"/>
      <point x="653.927" y="453.439" type="line"/>
      <point x="653.927" y="393.596" type="line"/>
      <point x="752.866" y="422.321" type="line"/>
      <point x="183.166" y="422.321" type="line"/>
      <point x="183.166" y="317.796" type="line"/>
      <point x="752.866" y="317.796" type="line"/>
      <point x="653.927" y="340.935" type="line"/>
      <point x="653.927" y="290.667" type="line"/>
      <point x="724.94" y="369.659" type="line"/>
      <point x="502.801" y="133.081" type="line"/>
    </contour>
  </outline>
</glyph>
<glyph name="arrowupdn" format="2">
  <advance width="856"/>
  <unicode hex="2195"/>
  <outline>
    <contour>
      <point x="147.783" y="216.564" type="line"/>
      <point x="400.332" y="-0.000202059" type="line"/>
      <point x="504.065" y="-0.000202059" type="line"/>
      <point x="752.945" y="216.564" type="line"/>
      <point x="685.12" y="283.591" type="line"/>
      <point x="452.198" y="62.2392" type="line"/>
      <point x="535.982" y="132.458" type="line"/>
      <point x="476.137" y="132.458" type="line"/>
      <point x="504.863" y="33.5133" type="line"/>
      <point x="504.863" y="603.244" type="line"/>
      <point x="400.332" y="603.244" type="line"/>
      <point x="400.332" y="33.5133" type="line"/>
      <point x="423.473" y="132.458" type="line"/>
      <point x="373.202" y="132.458" type="line"/>
      <point x="452.198" y="61.4413" type="line"/>
      <point x="215.608" y="283.591" type="line"/>
    </contour>
    <contour>
      <point x="147.802" y="519.117" type="line"/>
      <point x="400.338" y="735.67" type="line"/>
      <point x="504.065" y="735.67" type="line"/>
      <point x="752.932" y="519.117" type="line"/>
      <point x="685.11" y="452.094" type="line"/>
      <point x="452.201" y="673.434" type="line"/>
      <point x="535.981" y="603.219" type="line"/>
      <point x="476.138" y="603.219" type="line"/>
      <point x="504.863" y="702.159" type="line"/>
      <point x="504.863" y="132.458" type="line"/>
      <point x="400.338" y="132.458" type="line"/>
      <point x="400.338" y="702.159" type="line"/>
      <point x="423.477" y="603.219" type="line"/>
      <point x="373.209" y="603.219" type="line"/>
      <point x="452.201" y="674.232" type="line"/>
      <point x="215.623" y="452.094" type="line"/>
    </contour>
  </outline>
</glyph>
<glyph name="uni2196" format="2">
	<advance width="800"/>
	<unicode hex="2196"/>
	<outline>
		<contour>
			<point x="140.477" y="171.43" type="line"/>
			<point x="116.124" y="657.571" type="line"/>
			<point x="206.373" y="751.145" type="line"/>
			<point x="693.077" y="744.389" type="line"/>
			<point x="694.531" y="624.892" type="line"/>
			<point x="215.953" y="651.597" type="line"/>
			<point x="353.628" y="664.696" type="line"/>
			<point x="301.562" y="610.711" type="line"/>
			<point x="234.836" y="724.847" type="line"/>
			<point x="748.772" y="229.173" type="line"/>
			<point x="659.004" y="129.059" type="line"/>
			<point x="145.068" y="624.733" type="line"/>
			<point x="255.743" y="563.205" type="line"/>
			<point x="212.007" y="517.857" type="line"/>
			<point x="217.953" y="649.597" type="line"/>
			<point x="259.949" y="174.298" type="line"/>
		</contour>
	</outline>
</glyph>
<glyph name="uni2197" format="2">
	<advance width="800"/>
	<unicode hex="2197"/>
	<outline>
		<contour>
			<point x="675.187" y="171.43" type="line"/>
			<point x="699.54" y="657.571" type="line"/>
			<point x="609.291" y="751.145" type="line"/>
			<point x="122.587" y="744.389" type="line"/>
			<point x="121.133" y="624.892" type="line"/>
			<point x="599.711" y="651.597" type="line"/>
			<point x="462.036" y="664.696" type="line"/>
			<point x="514.103" y="610.711" type="line"/>
			<point x="579.06" y="723.988" type="line"/>
			<point x="65.124" y="228.314" type="line"/>
			<point x="158.373" y="129.74" type="line"/>
			<point x="670.308" y="624.414" type="line"/>
			<point x="559.921" y="563.205" type="line"/>
			<point x="603.657" y="517.857" type="line"/>
			<point x="599.711" y="651.597" type="line"/>
			<point x="555.715" y="174.298" type="line"/>
		</contour>
	</outline>
</glyph>
<glyph name="uni2198" format="2">
	<advance width="800"/>
	<unicode hex="2198"/>
	<outline>
		<contour>
			<point x="106.602" y="24.802" type="line"/>
			<point x="592.54" y="-3.54663" type="line"/>
			<point x="686.855" y="85.9324" type="line"/>
			<point x="684.1" y="572.689" type="line"/>
			<point x="564.615" y="575.125" type="line"/>
			<point x="584.386" y="99.331" type="line"/>
			<point x="601.617" y="233.897" type="line"/>
			<point x="547.204" y="182.275" type="line"/>
			<point x="657.946" y="116.403" type="line"/>
			<point x="166.5" y="634.41" type="line"/>
			<point x="72.1847" y="544.931" type="line"/>
			<point x="563.631" y="26.9244" type="line"/>
			<point x="499.321" y="136.847" type="line"/>
			<point x="453.615" y="93.4842" type="line"/>
			<point x="585.386" y="98.331" type="line"/>
			<point x="110.452" y="144.249" type="line"/>
		</contour>
	</outline>
</glyph>
<glyph name="uni2199" format="2">
  <advance width="800"/>
  <unicode hex="2199"/>
  <outline>
    <contour>
      <point x="111.902" y="581.767" type="line"/>
      <point x="87.8171" y="95.6239" type="line"/>
      <point x="178.115" y="2.10192" type="line"/>
      <point x="664.804" y="9.12472" type="line"/>
      <point x="666.193" y="128.62" type="line"/>
      <point x="187.641" y="101.653" type="line"/>
      <point x="325.32" y="88.6295" type="line"/>
      <point x="273.225" y="142.585" type="line"/>
      <point x="208.33" y="30.2751" type="line"/>
      <point x="721.982" y="526.22" type="line"/>
      <point x="630.683" y="623.741" type="line"/>
      <point x="117.032" y="130.797" type="line"/>
      <point x="227.381" y="190.065" type="line"/>
      <point x="183.621" y="235.387" type="line"/>
      <point x="190.64" y="104.653" type="line"/>
      <point x="231.373" y="578.965" type="line"/>
    </contour>
  </outline>
</glyph>
<glyph name="Advertencia" format="2">
  <advance width="832"/>
  <outline>
    <contour>
      <point x="465" y="264" type="line"/>
      <point x="465" y="510" type="line"/>
      <point x="369" y="510" type="line"/>
      <point x="369" y="264" type="line"/>
    </contour>
    <contour>
      <point x="9" y="104" type="line"/>
      <point x="9" y="0" type="line"/>
      <point x="823" y="0" type="line"/>
      <point x="823" y="104" type="line"/>
      <point x="469" y="761" type="line"/>
      <point x="358" y="761" type="line"/>
    </contour>
    <contour>
      <point x="109" y="54" type="line"/>
      <point x="451" y="699" type="line"/>
      <point x="382" y="699" type="line"/>
      <point x="723" y="55" type="line"/>
      <point x="735" y="104" type="line"/>
      <point x="105" y="104" type="line"/>
    </contour>
    <contour>
      <point x="369" y="138" type="line"/>
      <point x="465" y="138" type="line"/>
      <point x="465" y="234" type="line"/>
      <point x="369" y="234" type="line"/>
    </contour>
  </outline>
</glyph>
<glyph name="Jardin" format="2">
	<advance width="832"/>
	<outline>
		<contour>
			<point x="158" y="276" type="line"/>
			<point x="665" y="276" type="line"/>
			<point x="502" y="756" type="line"/>
			<point x="317" y="756" type="line"/>
		</contour>
		<contour>
			<point x="85" y="-1" type="line"/>
			<point x="747" y="-1" type="line"/>
			<point x="747" y="120" type="line"/>
			<point x="85" y="120" type="line"/>
		</contour>
		<contour>
			<point x="349" y="113" type="line"/>
			<point x="469" y="113" type="line"/>
			<point x="469" y="383" type="line"/>
			<point x="349" y="383" type="line"/>
		</contour>
		<contour>
			<point x="318" y="383" type="line"/>
			<point x="400" y="689" type="line"/>
			<point x="356" y="647" type="line"/>
			<point x="468" y="646" type="line"/>
			<point x="409" y="691" type="line"/>
			<point x="495" y="384" type="line"/>
		</contour>
	</outline>
</glyph>
<glyph name="Mascota" format="2">
	<advance width="832"/>
	<outline>
		<contour>
			<point x="58" y="0" type="line"/>
			<point x="178" y="0" type="line"/>
			<point x="178" y="194" type="line"/>
			<point x="151" y="99" type="line"/>
			<point x="267" y="281" type="line"/>
			<point x="94" y="252" type="line"/>
			<point x="58" y="152" type="line"/>
		</contour>
		<contour>
			<point x="275" y="0" type="line"/>
			<point x="406" y="0" type="line"/>
			<point x="288" y="214" type="line"/>
			<point x="215" y="101" type="line"/>
		</contour>
		<contour>
			<point x="477" y="0" type="line"/>
			<point x="595" y="0" type="line"/>
			<point x="605" y="428" type="line"/>
			<point x="504" y="541" type="line"/>
			<point x="94" y="541" type="line"/>
			<point x="94" y="252" type="line"/>
			<point x="529" y="252" type="line"/>
			<point x="477" y="304" type="line"/>
		</contour>
		<contour>
			<point x="549" y="570" type="line"/>
			<point x="653" y="454" type="line"/>
			<point x="705" y="498" type="line"/>
			<point x="653" y="454" type="line"/>
			<point x="770" y="411" type="line"/>
			<point x="834" y="484" type="line"/>
			<point x="721" y="664" type="line"/>
			<point x="716" y="590" type="line"/>
			<point x="765" y="726" type="line"/>
			<point x="733" y="759" type="line"/>
		</contour>
		<contour>
			<point x="0" y="599" type="line"/>
			<point x="133" y="425" type="line"/>
			<point x="205" y="481" type="line"/>
			<point x="73" y="656" type="line"/>
		</contour>
	</outline>
</glyph>
<glyph name="acutecomb.case" format="2">
  <anchor x="1" y="756" name="_top"/>
  <outline>
    <contour>
      <point x="-203" y="910" type="line"/>
      <point x="-171" y="811" type="line"/>
      <point x="210" y="910" type="line"/>
      <point x="160" y="1051" type="line"/>
    </contour>
  </outline>
</glyph>
